<?xml version="1.0" encoding="utf-8"?>
<!-- Generator: Adobe Illustrator 17.1.0, SVG Export Plug-In . SVG Version: 6.00 Build 0)  -->
<!DOCTYPE svg PUBLIC "-//W3C//DTD SVG 1.1//EN" "http://www.w3.org/Graphics/SVG/1.1/DTD/svg11.dtd">
<svg version="1.1" id="图层_1" xmlns="http://www.w3.org/2000/svg" xmlns:xlink="http://www.w3.org/1999/xlink" x="0px" y="0px"
	 viewBox="0 0 113.4 113.4" enable-background="new 0 0 113.4 113.4" xml:space="preserve">
<g>
	
		<radialGradient id="SVGID_1_" cx="8948.1318" cy="2261.5295" r="87.3255" gradientTransform="matrix(-0.6082 0 0 -0.6082 5499.2568 1432.2351)" gradientUnits="userSpaceOnUse">
		<stop  offset="0" style="stop-color:#008DD0"/>
		<stop  offset="0.1167" style="stop-color:#008ACD"/>
		<stop  offset="0.2712" style="stop-color:#0080C6"/>
		<stop  offset="0.4469" style="stop-color:#0070B9"/>
		<stop  offset="0.6383" style="stop-color:#0259A8"/>
		<stop  offset="0.8399" style="stop-color:#163C96"/>
		<stop  offset="1" style="stop-color:#1D2088"/>
	</radialGradient>
	<path opacity="0.2" fill="url(#SVGID_1_)" d="M8.1,85.5l48,27.7c0.2,0.1,0.4,0.2,0.7,0.2s0.5-0.1,0.7-0.2l48-27.7
		c0.4-0.2,0.7-0.7,0.7-1.1V29c0-0.5-0.3-0.9-0.7-1.1l-48-27.7c-0.4-0.2-0.9-0.2-1.3,0l-48,27.7c-0.4,0.2-0.7,0.7-0.7,1.1v55.4
		C7.4,84.9,7.7,85.3,8.1,85.5z M58,3.6l45.3,26.2v52.3L58,55.9V3.6z M56.7,58.2l0.4,0.2L102,84.4l-45.3,26.2l-0.4-0.2L11.4,84.4
		L56.7,58.2z M10.1,29.8L55.4,3.6v52.3L10.1,82.1V29.8z"/>
	<g>
		<g>
			<g>
				<polygon fill="#5B75B8" points="56.7,56.7 56.7,75.9 73.3,66.3 73.3,47.1 				"/>
			</g>
			<g>
				<polygon fill="#5B75B8" points="40.1,47.1 40.1,66.3 56.7,75.9 56.7,56.7 				"/>
			</g>
			<g>
				<polygon fill="#5B75B8" points="56.7,37.5 40.1,47.1 56.7,56.7 73.3,47.1 				"/>
			</g>
		</g>
	</g>
	<linearGradient id="SVGID_2_" gradientUnits="userSpaceOnUse" x1="56.695" y1="38.7756" x2="56.695" y2="74.0659">
		<stop  offset="0" style="stop-color:#85D0F4"/>
		<stop  offset="1" style="stop-color:#4595D2"/>
	</linearGradient>
	<polygon fill="url(#SVGID_2_)" points="56.7,19.4 24.4,38 24.4,75.4 56.7,94 89,75.4 89,38 	"/>
	
		<radialGradient id="SVGID_3_" cx="56.7149" cy="55.5947" r="87.3255" gradientTransform="matrix(0.6082 0 0 0.6082 22.199 22.8804)" gradientUnits="userSpaceOnUse">
		<stop  offset="0" style="stop-color:#008DD0"/>
		<stop  offset="0.1167" style="stop-color:#008ACD"/>
		<stop  offset="0.2712" style="stop-color:#0080C6"/>
		<stop  offset="0.4469" style="stop-color:#0070B9"/>
		<stop  offset="0.6383" style="stop-color:#0259A8"/>
		<stop  offset="0.8399" style="stop-color:#163C96"/>
		<stop  offset="1" style="stop-color:#1D2088"/>
	</radialGradient>
	<path fill="url(#SVGID_3_)" d="M105.3,27.9l-48-27.7C57.2,0.1,56.9,0,56.7,0S56.2,0.1,56,0.2l-48,27.7c-0.4,0.2-0.7,0.7-0.7,1.1
		v55.4c0,0.5,0.3,0.9,0.7,1.1l48,27.7c0.4,0.2,0.9,0.2,1.3,0l48-27.7c0.4-0.2,0.7-0.7,0.7-1.1V29C106,28.5,105.7,28.1,105.3,27.9z
		 M55.4,109.8L10.1,83.6V31.3l45.3,26.2V109.8z M56.7,55.2l-0.4-0.2L11.4,29L56.7,2.8l0.4,0.2L102,29L56.7,55.2z M103.3,83.6
		L58,109.8V57.5l45.3-26.2V83.6z"/>
</g>
</svg>
