<?xml version="1.0" encoding="utf-8"?>
<!-- Generator: Adobe Illustrator 22.1.0, SVG Export Plug-In . SVG Version: 6.00 Build 0)  -->
<svg version="1.1" id="图层_1" xmlns="http://www.w3.org/2000/svg" xmlns:xlink="http://www.w3.org/1999/xlink" x="0px" y="0px"
	 viewBox="0 0 200.8 200" style="enable-background:new 0 0 200.8 200;fill:#fff;" xml:space="preserve">
<path d="M53.1,61.4l38.3-38.2v111.5c0,3.7,3,6.6,6.7,6.6c3.7,0,6.6-3,6.6-6.6V23.3l38.3,38.2c2.4,2.8,6.6,3.1,9.4,0.7
	s3.1-6.6,0.7-9.4c-0.2-0.3-0.5-0.5-0.7-0.7L102.7,2.5c-0.3-0.3-0.7-0.6-1-0.8c-0.2-0.1-0.3-0.2-0.5-0.3L100.6,1l-0.7-0.2h-0.6
	c-0.9-0.2-1.7-0.2-2.6,0h-0.6L95.5,1l-0.6,0.3c-0.2,0.1-0.4,0.2-0.5,0.3c-0.4,0.2-0.7,0.5-1,0.8L43.6,52.1c-2.4,2.8-2.1,7,0.7,9.4
	C46.8,63.6,50.5,63.6,53.1,61.4L53.1,61.4z"/>
<path d="M193.7,131.5c-3.7,0-6.7,3-6.7,6.7l0,0v48.5H13.3v-48.5c0-3.7-3-6.6-6.7-6.6c-3.7,0-6.6,3-6.6,6.6v55.2c0,3.7,3,6.7,6.7,6.7
	l0,0h187c3.7,0,6.7-3,6.7-6.7v-55.2C200.3,134.5,197.3,131.5,193.7,131.5L193.7,131.5L193.7,131.5z"/>
</svg>
