<?xml version="1.0" encoding="utf-8"?>
<!-- Generator: Adobe Illustrator 22.1.0, SVG Export Plug-In . SVG Version: 6.00 Build 0)  -->
<svg version="1.1" id="图层_1" xmlns="http://www.w3.org/2000/svg" xmlns:xlink="http://www.w3.org/1999/xlink" x="0px" y="0px"
	 viewBox="0 0 60 60" style="enable-background:new 0 0 60 60;fill:#578ae3;" xml:space="preserve">
<style type="text/css">
	.st0{fill:#578ae3;}
</style>
<g>
	<g>
		<path class="st0" d="M22.8,59.4H6.5c-3.3,0-5.9-2.7-5.9-5.9V5.9C0.5,2.7,3.2,0,6.5,0h36.7c3.3,0,5.9,2.7,5.9,5.9v11.4
			c0,1.1-0.9,2-2,2c-1.1,0-2-0.9-2-2V5.9c0-1.1-0.9-2-2-2H6.5c-1.1,0-2,0.9-2,2v47.6c0,1.1,0.9,2,2,2h16.4c1.1,0,2,0.9,2,2
			C24.8,58.6,23.9,59.4,22.8,59.4z"/>
	</g>
	<g>
		<path class="st0" d="M38.4,16.8H10.2c-1.1,0-2-0.9-2-2s0.9-2,2-2h28.2c1.1,0,2,0.9,2,2S39.5,16.8,38.4,16.8z"/>
	</g>
	<g>
		<path class="st0" d="M17.6,31.7h-6.9c-1.1,0-2-0.9-2-2s0.9-2,2-2h6.9c1.1,0,2,0.9,2,2S18.7,31.7,17.6,31.7z"/>
	</g>
	<g>
		<path class="st0" d="M15.6,46.6h-5c-1.1,0-2-0.9-2-2c0-1.1,0.9-2,2-2h5c1.1,0,2,0.9,2,2C17.6,45.7,16.7,46.6,15.6,46.6z"/>
	</g>
	<g>
		<g>
			<path class="st0" d="M40.6,60c-10.4,0-18.8-8.4-18.8-18.8s8.4-18.8,18.8-18.8s18.8,8.4,18.8,18.8S51,60,40.6,60z M40.6,26.3
				c-8.2,0-14.9,6.7-14.9,14.9S32.5,56,40.6,56s14.9-6.7,14.9-14.9S48.8,26.3,40.6,26.3z"/>
		</g>
		<g>
			<path class="st0" d="M47.4,44.3h-6.7c-1.1,0-2-0.9-2-2v-7.9c0-1.1,0.9-2,2-2c1.1,0,2,0.9,2,2v5.9h4.8c1.1,0,2,0.9,2,2
				C49.4,43.4,48.5,44.3,47.4,44.3z"/>
		</g>
	</g>
</g>
</svg>
