<?xml version="1.0" standalone="no"?><!DOCTYPE svg PUBLIC "-//W3C//DTD SVG 1.1//EN" "http://www.w3.org/Graphics/SVG/1.1/DTD/svg11.dtd"><svg t="1568267679912" class="icon" viewBox="0 0 1339 1024" version="1.1" xmlns="http://www.w3.org/2000/svg" p-id="5401" xmlns:xlink="http://www.w3.org/1999/xlink" width="261.5234375" height="200"><defs><style type="text/css"></style></defs><path d="M629.580209 79.196744C617.075461 38.903664 579.561214 12.504749 537.878717 12.504749H115.496085C80.760671 12.504749 51.582923 41.682497 51.582923 76.41791V319.565807h507.137042v87.533243h729.443691V177.845319c0-34.735414-29.177748-63.913161-63.913162-63.913162H678.209789c-22.230665 0-41.682497-13.894166-48.62958-34.735413z" fill="#F4B860" p-id="5402"></path><path d="M572.614131 400.151967v-87.533242H65.477089v-236.200815c0-31.956581 25.009498-56.966079 56.966078-56.966078h422.382633c38.903664 0 72.249661 25.009498 84.754409 61.134328 8.336499 23.620081 30.567164 40.29308 55.576663 40.29308h532.14654c31.956581 0 56.966079 25.009498 56.966078 56.966079v220.917232l-701.655359 1.389416z" fill="#F4B860" p-id="5403"></path><path d="M544.8258 26.398915c36.12483 0 66.691995 22.230665 77.807327 56.966078 8.336499 27.788331 33.345997 45.850746 62.523745 45.850746h532.14654c27.788331 0 50.018996 22.230665 50.018996 50.018996v213.97015H579.561214V305.671642H72.424172V76.41791c0-27.788331 22.230665-50.018996 50.018995-50.018995h422.382633m0-13.894166H122.443167C87.707754 12.504749 58.530006 41.682497 58.530006 76.41791V319.565807h507.137042v87.533243h715.549525V177.845319c0-34.735414-29.177748-63.913161-63.913161-63.913162H685.156872c-22.230665 0-41.682497-13.894166-48.62958-36.12483-12.504749-38.903664-50.018996-65.302578-91.701492-65.302578z" fill="#F9CE82" p-id="5404"></path><path d="M1288.163656 414.046133H558.719965v-87.533243H51.582923v-250.09498C51.582923 37.514247 83.539504 5.557666 122.443167 5.557666h422.382633c44.46133 0 84.75441 29.177748 98.648575 70.860244 5.557666 18.062415 22.230665 30.567164 41.682497 30.567165h532.14654c38.903664 0 70.860244 31.956581 70.860244 70.860244v236.200814z m-715.549525-13.894166h701.655359v-222.306648c0-31.956581-25.009498-56.966079-56.966078-56.966079H685.156872c-25.009498 0-47.240163-16.672999-55.576663-40.29308-12.504749-37.514247-45.850746-61.134328-84.754409-61.134328H122.443167c-31.956581 0-56.966079 25.009498-56.966078 56.966078v234.811398h507.137042v88.922659z" fill="#EFA750" p-id="5405"></path><path d="M1232.586994 1011.495251h-1125.427409c-33.345997 0-62.523745-26.398915-63.913161-61.134328L7.121593 259.820896c-1.389417-36.12483 27.788331-66.691995 63.913162-66.691995h1197.677069c36.12483 0 65.302578 30.567164 63.913162 66.691995l-36.124831 693.31886c-1.389417 31.956581-30.567164 58.355495-63.913161 58.355495z" fill="#FCD370" p-id="5406"></path><path d="M107.159585 1004.548168c-30.567164 0-55.576662-23.620081-56.966078-54.187245L14.068676 258.431479c-1.389417-15.283582 4.16825-30.567164 15.283582-41.682497s25.009498-18.062415 41.682497-18.062415h1197.677069c15.283582 0 30.567164 6.947083 41.682497 18.062415 11.115332 11.115332 16.672999 26.398915 15.283582 41.682497l-36.124831 693.31886c-1.389417 30.567164-26.398915 54.187246-56.966078 54.187246 0-1.389417-1125.427408-1.389417-1125.427409-1.389417z" fill="#FCD370" p-id="5407"></path><path d="M1268.711824 205.63365c13.894166 0 26.398915 5.557666 36.124831 15.283582 9.725916 9.725916 13.894166 23.620081 13.894165 37.514247l-36.12483 693.31886c-1.389417 26.398915-23.620081 47.240163-50.018996 47.240163h-1125.427409c-26.398915 0-48.629579-20.841248-50.018996-47.240163L21.015759 258.431479c-1.389417-13.894166 4.16825-26.398915 13.894166-37.514247 9.725916-9.725916 22.230665-15.283582 36.12483-15.283582h1197.677069m0-13.894166H71.034755C34.909925 191.739484 5.732177 222.306649 7.121593 258.431479l36.124831 693.31886c1.389417 33.345997 29.177748 61.134328 63.913161 61.134329h1125.427409c33.345997 0 62.523745-26.398915 63.913161-61.134329l36.124831-691.929443c1.389417-37.514247-27.788331-68.081411-63.913162-68.081412z" fill="#FBDCB0" p-id="5408"></path><path d="M1232.586994 1018.442334h-1125.427409c-37.514247 0-69.470828-29.177748-70.860244-66.691995L0.174511 259.820896c-1.389417-19.451832 5.557666-38.903664 19.451831-52.79783s31.956581-22.230665 51.408413-22.230664h1197.677069c19.451832 0 37.514247 8.336499 51.408413 22.230664s20.841248 33.345997 19.451831 52.79783l-36.12483 693.31886c-1.389417 36.12483-33.345997 65.302578-70.860244 65.302578z m-1161.552239-819.755767c-15.283582 0-30.567164 6.947083-41.682497 18.062415s-16.672999 26.398915-15.283582 41.682497l36.124831 693.31886c1.389417 30.567164 26.398915 54.187246 56.966078 54.187246h1125.427409c30.567164 0 55.576662-23.620081 56.966078-54.187246l36.124831-693.31886c1.389417-15.283582-4.16825-30.567164-15.283582-41.682497s-25.009498-18.062415-41.682497-18.062415H71.034755z" fill="#F4B860" p-id="5409"></path></svg>