<?xml version="1.0" encoding="utf-8"?>
<!-- Generator: Adobe Illustrator 22.1.0, SVG Export Plug-In . SVG Version: 6.00 Build 0)  -->
<svg version="1.1" id="图层_1" xmlns="http://www.w3.org/2000/svg" xmlns:xlink="http://www.w3.org/1999/xlink" x="0px" y="0px"
	 viewBox="0 0 60 60" style="enable-background:new 0 0 60 60;fill:#578ae3;" xml:space="preserve">
<g id="icon_x5F_back">
	<g>
		<path d="M36.9,60h-22c-1.1,0-2-0.9-2-2s0.9-2,2-2h21.9c1.5-0.2,18.9-2.3,18.9-20.4c0-18-17.9-20-19.4-20.2H7.7c-1.1,0-2-0.9-2-2
			s0.9-2,2-2l28.7,0c0.2,0,23.3,2,23.3,24.3C59.7,57.7,37.2,59.9,36.9,60L36.9,60z"/>
	</g>
	<g>
		<path d="M14.4,26.6c-0.5,0-1-0.2-1.4-0.6L1.7,14.7c-0.8-0.8-0.8-2.1,0-2.9L13,0.6c0.8-0.8,2.1-0.8,2.9,0c0.8,0.8,0.8,2.1,0,2.9
			L6,13.3l9.8,9.8c0.8,0.8,0.8,2.1,0,2.9C15.5,26.4,15,26.6,14.4,26.6z"/>
	</g>
</g>
</svg>
