<?xml version="1.0" encoding="utf-8"?>
<!-- Generator: Adobe Illustrator 22.1.0, SVG Export Plug-In . SVG Version: 6.00 Build 0)  -->
<svg version="1.1" id="图层_1" xmlns="http://www.w3.org/2000/svg" xmlns:xlink="http://www.w3.org/1999/xlink" x="0px" y="0px"
	 viewBox="0 0 200 200" style="enable-background:new 0 0 200 200;fill:#578ae3;" xml:space="preserve">
<path d="M179.3,199.6H20.2c-11,0-20-9-20-20c0,0,0,0,0,0V20.4c0-11,9-20,20-20h159.2c11,0,20,9,20,20c0,0,0,0,0,0v159.2
	C199.3,190.6,190.4,199.6,179.3,199.6C179.3,199.6,179.3,199.6,179.3,199.6z M20.2,13.7c-3.7,0-6.7,3-6.7,6.7v159.2
	c0,3.7,3,6.7,6.7,6.7h159.2c3.7,0,6.7-3,6.7-6.7V20.4c0-3.7-3-6.7-6.7-6.7H20.2z"/>
<path d="M149.3,106.7H50.2c-3.7,0-6.7-3-6.7-6.7c0-3.7,3-6.7,6.7-6.7h99.1c3.7,0,6.7,3,6.7,6.7C156,103.7,153,106.7,149.3,106.7z"/>
</svg>
