<?xml version="1.0" encoding="utf-8"?>
<!-- Generator: Adobe Illustrator 22.1.0, SVG Export Plug-In . SVG Version: 6.00 Build 0)  -->
<svg version="1.1" id="图层_1" xmlns="http://www.w3.org/2000/svg" xmlns:xlink="http://www.w3.org/1999/xlink" x="0px" y="0px"
	 viewBox="0 0 200 200" style="enable-background:new 0 0 200 200;fill:#578ae3;" xml:space="preserve">
<path d="M193.1,37.5l-31-31.2c-4-4-9.4-6.3-15.1-6.3c-5.7,0-11.1,2.3-15.1,6.3l-15.5,15.6l-87.9,88.6c-1,1-1.7,2.4-1.8,3.8L1,191.2
	c-1.2,3.5,0.7,7.3,4.2,8.4c1.4,0.5,2.9,0.5,4.3,0l76.3-25.8c1.5-0.2,2.8-0.9,3.8-1.9L193,67.8C201.3,59.4,201.3,45.9,193.1,37.5z
	 M84.9,157.8l-42.3-42.7l78.5-79.1l42.2,42.6L84.9,157.8z M36.2,127.8l36.3,36.7l-54.6,18.2L36.2,127.8z M183.6,58.4l-10.8,10.8
	l-42.3-42.6l10.8-11c1.5-1.5,3.5-2.3,5.6-2.3c2.1,0,4.1,0.8,5.6,2.3l31,31.3C186.8,50.1,186.8,55.2,183.6,58.4z"/>
</svg>
