<?xml version="1.0" encoding="utf-8"?>
<!-- Generator: Adobe Illustrator 22.1.0, SVG Export Plug-In . SVG Version: 6.00 Build 0)  -->
<svg version="1.1" id="图层_1" xmlns="http://www.w3.org/2000/svg" xmlns:xlink="http://www.w3.org/1999/xlink" x="0px" y="0px"
	 viewBox="0 0 60 60" style="enable-background:new 0 0 60 60;" xml:space="preserve">
<style type="text/css">
	.st0{fill:#578ae3;}
</style>
<g>
	<g id="icon_x5F_turn_2_">
		<g id="icon_x5F_turn_3_">
			<path class="st0" d="M30,60C13.5,60,0,46.5,0,30S13.5,0,30,0c9.7,0,18.8,4.7,24.4,12.6c0.6,0.9,0.4,2.1-0.5,2.8
				c-0.9,0.6-2.1,0.4-2.8-0.5C46.3,8.1,38.4,4,30,4C15.7,4,4,15.7,4,30s11.7,26,26,26C43.6,56,54.9,45.5,56,32
				c0.1-1.1,1-1.9,2.1-1.8c1.1,0.1,1.9,1,1.8,2.1C58.8,47.8,45.6,60,30,60z"/>
		</g>
		<g>
			<path class="st0" d="M54,17H42c-1.1,0-2-0.9-2-2s0.9-2,2-2h10V3c0-1.1,0.9-2,2-2s2,0.9,2,2v12C56,16.1,55.1,17,54,17z"/>
		</g>
	</g>
	<g>
		<path class="st0" d="M41.1,41.5c-0.3,0-0.6-0.1-0.9-0.2l-13.4-6.7V16.9c0-1.1,0.9-2,2-2s2,0.9,2,2v15.3L42,37.8
			c1,0.5,1.4,1.7,0.9,2.7C42.6,41.1,41.9,41.5,41.1,41.5z"/>
	</g>
</g>
</svg>
