<?xml version="1.0" encoding="utf-8"?>
<!-- Generator: Adobe Illustrator 22.1.0, SVG Export Plug-In . SVG Version: 6.00 Build 0)  -->
<svg version="1.1" id="图层_1" xmlns="http://www.w3.org/2000/svg" xmlns:xlink="http://www.w3.org/1999/xlink" x="0px" y="0px"
	 viewBox="0 0 200 200" style="enable-background:new 0 0 200 200;fill:#578ae3;" xml:space="preserve">
<path d="M143.3,93.3h-36.7V56.4c0-3.7-3-6.7-6.7-6.7c-3.7,0-6.7,3-6.7,6.7v36.9H56.7c-3.7,0-6.7,3-6.7,6.7c0,3.7,3,6.7,6.7,6.7h36.7
	v36.9c0,3.7,3,6.7,6.7,6.7c3.7,0,6.7-3,6.7-6.7v-36.9h36.7c3.7,0,6.7-3,6.7-6.7C150,96.3,147,93.3,143.3,93.3
	C143.3,93.3,143.3,93.3,143.3,93.3z"/>
<path d="M100,0C44.8,0,0,44.8,0,100s44.8,100,100,100s100-44.8,100-100S155.2,0,100,0z M100,186.7c-47.9,0-86.7-38.8-86.7-86.7
	S52.1,13.3,100,13.3s86.7,38.8,86.7,86.7l0,0C186.7,147.9,147.9,186.7,100,186.7z" />
</svg>
