<?xml version="1.0" encoding="utf-8"?>
<!-- Generator: Adobe Illustrator 22.1.0, SVG Export Plug-In . SVG Version: 6.00 Build 0)  -->
<svg version="1.1" id="图层_1" xmlns="http://www.w3.org/2000/svg" xmlns:xlink="http://www.w3.org/1999/xlink" x="0px" y="0px"
	 viewBox="0 0 200 200" style="enable-background:new 0 0 200 200;fill:#ffffff;" xml:space="preserve">
<path d="M153.1,96.7h-43.3V53.3c0-3.7-3-6.7-6.7-6.7c-3.7,0-6.7,3-6.7,6.7v43.3H53.1c-3.7,0-6.7,3-6.7,6.7c0,3.7,3,6.7,6.7,6.7h43.3
	v43.3c0,3.7,3,6.7,6.7,6.7c3.7,0,6.7-3,6.7-6.7V110h43.3c3.7,0,6.7-3,6.7-6.7C159.7,99.7,156.7,96.7,153.1,96.7L153.1,96.7z"/>
<path d="M179.6,0.4H20.4c-11,0-20,9-20,20v159.2c0,11,9,20,20,20c0,0,0,0,0,0h159.2c11,0,20-9,20-20c0,0,0,0,0,0V20.4
	C199.6,9.4,190.6,0.4,179.6,0.4C179.6,0.4,179.6,0.4,179.6,0.4z M186.3,179.6c0,3.7-3,6.7-6.7,6.7H20.4c-3.7,0-6.7-3-6.7-6.7V20.4
	c0-3.7,3-6.7,6.7-6.7h159.2c3.7,0,6.7,3,6.7,6.7V179.6z"/>
</svg>
